# xmcd
#
# Track frame offsets: 
#        150
#        15247
#        30816
#        50951
#        71148
#        100230
#        115918
#        128596
#        147259
#        161595
#
# Disc length: 2309 seconds
#
# Revision: 0
# Processed by: cddbd v1.5.2PL0 Copyright (c) Steve Scherf et al.
# Submitted via: ExactAudioCopy v1.2
#
DISCID=7f09030a
DTITLE=John McNamara - Rollin' with It
DYEAR=2017
DGENRE=Blues
TTITLE0=One, Two of a Kind
TTITLE1=Bad Reputation
TTITLE2=Ask Me Nothing (But About the Blues)
TTITLE3=Wild out There
TTITLE4=Under the Weight of the Moon
TTITLE5=One Impossible Night
TTITLE6=Security
TTITLE7=Blind Man
TTITLE8=You Wouldn't Wanna Know
TTITLE9=Suffering with the Blues
EXTD=
EXTT0=
EXTT1=
EXTT2=
EXTT3=
EXTT4=
EXTT5=
EXTT6=
EXTT7=
EXTT8=
EXTT9=
PLAYORDER=
